<svg xmlns="http://www.w3.org/2000/svg" style="display: none;">

  <symbol id="icon-energy" viewBox="0 0 48 48">
    <path d="M 26 7 L 13 27 L 22 27 L 19 41 L 35 21 L 25 21 Z"
          fill="none" stroke="currentColor" stroke-width="2"
          stroke-linejoin="miter" stroke-linecap="square"/>
    <path d="M 22 27 L 25 21 M 26 7 L 22 27"
          fill="none" stroke="currentColor" stroke-width="1"
          stroke-linejoin="miter" stroke-linecap="square" opacity="0.45"/>
  </symbol>

  <symbol id="icon-temperature" viewBox="0 0 48 48">
    <path d="M 22 8 L 22 30 L 17 33 L 17 39 L 24 43 L 31 39 L 31 33 L 26 30 L 26 8 Z"
          fill="none" stroke="currentColor" stroke-width="2"
          stroke-linejoin="miter" stroke-linecap="square"/>
    <path d="M 24 8 L 24 43 M 17 33 L 31 33"
          fill="none" stroke="currentColor" stroke-width="1"
          stroke-linejoin="miter" stroke-linecap="square" opacity="0.45"/>
  </symbol>

  <symbol id="icon-parking" viewBox="0 0 48 48">
    <path d="M 8 10 L 32 10 L 38 16 L 38 40 L 8 40 Z"
          fill="none" stroke="currentColor" stroke-width="2"
          stroke-linejoin="miter" stroke-linecap="square"/>
    <path d="M 32 10 L 32 16 L 38 16"
          fill="none" stroke="currentColor" stroke-width="2"
          stroke-linejoin="miter" stroke-linecap="square"/>
    <path d="M 16 34 L 16 18 L 26 18 L 26 26 L 16 26"
          fill="none" stroke="currentColor" stroke-width="2"
          stroke-linejoin="miter" stroke-linecap="square"/>
  </symbol>

  <symbol id="icon-wordcloud" viewBox="0 0 48 48">
    <path d="M 12 32 L 8 26 L 12 18 L 20 14 L 30 16 L 36 14 L 42 22 L 38 32 L 30 36 L 18 36 Z"
          fill="none" stroke="currentColor" stroke-width="2"
          stroke-linejoin="miter" stroke-linecap="square"/>
    <path d="M 20 14 L 18 36 M 30 16 L 30 36 M 12 18 L 36 14"
          fill="none" stroke="currentColor" stroke-width="1"
          stroke-linejoin="miter" stroke-linecap="square" opacity="0.45"/>
  </symbol>

  <symbol id="icon-timer" viewBox="0 0 48 48">
    <path d="M 14 10 L 34 10 L 40 20 L 40 34 L 34 40 L 14 40 L 8 34 L 8 20 Z"
          fill="none" stroke="currentColor" stroke-width="2"
          stroke-linejoin="miter" stroke-linecap="square"/>
    <path d="M 14 10 L 8 20 M 34 10 L 40 20"
          fill="none" stroke="currentColor" stroke-width="1"
          stroke-linejoin="miter" stroke-linecap="square" opacity="0.45"/>
    <path d="M 24 18 L 24 26 L 30 30"
          fill="none" stroke="currentColor" stroke-width="2"
          stroke-linejoin="miter" stroke-linecap="square"/>
  </symbol>

  <symbol id="icon-synthesis" viewBox="0 0 48 48">
    <path d="M 10 10 L 28 10 L 34 16 L 34 32 L 10 32 Z"
          fill="none" stroke="currentColor" stroke-width="2"
          stroke-linejoin="miter" stroke-linecap="square"/>
    <path d="M 28 10 L 28 16 L 34 16"
          fill="none" stroke="currentColor" stroke-width="2"
          stroke-linejoin="miter" stroke-linecap="square"/>
    <path d="M 10 22 L 34 22"
          fill="none" stroke="currentColor" stroke-width="1"
          stroke-linejoin="miter" stroke-linecap="square" opacity="0.45"/>
    <path d="M 26 32 L 30 38 L 36 40 L 40 36 L 38 30 L 32 28 Z"
          fill="none" stroke="currentColor" stroke-width="2"
          stroke-linejoin="miter" stroke-linecap="square"/>
    <path d="M 32 28 L 36 36"
          fill="none" stroke="currentColor" stroke-width="1"
          stroke-linejoin="miter" stroke-linecap="square" opacity="0.45"/>
  </symbol>

</svg>